<svg id="visual" viewBox="0 0 200 1000" width="200" height="1000" xmlns="http://www.w3.org/2000/svg" xmlns:xlink="http://www.w3.org/1999/xlink" version="1.1"><path d="M97 1000L99.8 981.5C102.7 963 108.3 926 114.3 889C120.3 852 126.7 815 118.2 778C109.7 741 86.3 704 79.2 667C72 630 81 593 89 555.8C97 518.7 104 481.3 108.5 444.2C113 407 115 370 107.2 333C99.3 296 81.7 259 77 222C72.3 185 80.7 148 85 111C89.3 74 89.7 37 89.8 18.5L90 0L200 0L200 18.5C200 37 200 74 200 111C200 148 200 185 200 222C200 259 200 296 200 333C200 370 200 407 200 444.2C200 481.3 200 518.7 200 555.8C200 593 200 630 200 667C200 704 200 741 200 778C200 815 200 852 200 889C200 926 200 963 200 981.5L200 1000Z" fill="#227428" stroke-linecap="round" stroke-linejoin="miter"></path></svg>