<svg id="visual" viewBox="0 0 900 675" width="900" height="675" xmlns="http://www.w3.org/2000/svg" xmlns:xlink="http://www.w3.org/1999/xlink" version="1.1"><path d="M0 69L11.5 71.2C23 73.3 46 77.7 69 75.3C92 73 115 64 138.2 67.3C161.3 70.7 184.7 86.3 207.8 84.2C231 82 254 62 277 57.5C300 53 323 64 346 61.7C369 59.3 392 43.7 415.2 47.2C438.3 50.7 461.7 73.3 484.8 73.3C508 73.3 531 50.7 554 40.5C577 30.3 600 32.7 623 42.8C646 53 669 71 692.2 81.2C715.3 91.3 738.7 93.7 761.8 86.8C785 80 808 64 831 61.7C854 59.3 877 70.7 888.5 76.3L900 82L900 0L888.5 0C877 0 854 0 831 0C808 0 785 0 761.8 0C738.7 0 715.3 0 692.2 0C669 0 646 0 623 0C600 0 577 0 554 0C531 0 508 0 484.8 0C461.7 0 438.3 0 415.2 0C392 0 369 0 346 0C323 0 300 0 277 0C254 0 231 0 207.8 0C184.7 0 161.3 0 138.2 0C115 0 92 0 69 0C46 0 23 0 11.5 0L0 0Z" fill="#ccb596"></path><path d="M0 109L11.5 109C23 109 46 109 69 103.3C92 97.7 115 86.3 138.2 93.2C161.3 100 184.7 125 207.8 127.3C231 129.7 254 109.3 277 105.8C300 102.3 323 115.7 346 119C369 122.3 392 115.7 415.2 121.3C438.3 127 461.7 145 484.8 143.8C508 142.7 531 122.3 554 114.5C577 106.7 600 111.3 623 113.7C646 116 669 116 692.2 117.2C715.3 118.3 738.7 120.7 761.8 122.8C785 125 808 127 831 131.5C854 136 877 143 888.5 146.5L900 150L900 80L888.5 74.3C877 68.7 854 57.3 831 59.7C808 62 785 78 761.8 84.8C738.7 91.7 715.3 89.3 692.2 79.2C669 69 646 51 623 40.8C600 30.7 577 28.3 554 38.5C531 48.7 508 71.3 484.8 71.3C461.7 71.3 438.3 48.7 415.2 45.2C392 41.7 369 57.3 346 59.7C323 62 300 51 277 55.5C254 60 231 80 207.8 82.2C184.7 84.3 161.3 68.7 138.2 65.3C115 62 92 71 69 73.3C46 75.7 23 71.3 11.5 69.2L0 67Z" fill="#bdaa80"></path><path d="M0 190L11.5 205.8C23 221.7 46 253.3 69 270.2C92 287 115 289 138.2 284.5C161.3 280 184.7 269 207.8 255.5C231 242 254 226 277 228.2C300 230.3 323 250.7 346 273.2C369 295.7 392 320.3 415.2 326C438.3 331.7 461.7 318.3 484.8 304.8C508 291.3 531 277.7 554 273.2C577 268.7 600 273.3 623 284.7C646 296 669 314 692.2 323C715.3 332 738.7 332 761.8 312.8C785 293.7 808 255.3 831 246.3C854 237.3 877 257.7 888.5 267.8L900 278L900 148L888.5 144.5C877 141 854 134 831 129.5C808 125 785 123 761.8 120.8C738.7 118.7 715.3 116.3 692.2 115.2C669 114 646 114 623 111.7C600 109.3 577 104.7 554 112.5C531 120.3 508 140.7 484.8 141.8C461.7 143 438.3 125 415.2 119.3C392 113.7 369 120.3 346 117C323 113.7 300 100.3 277 103.8C254 107.3 231 127.7 207.8 125.3C184.7 123 161.3 98 138.2 91.2C115 84.3 92 95.7 69 101.3C46 107 23 107 11.5 107L0 107Z" fill="#aca06c"></path><path d="M0 312L11.5 330C23 348 46 384 69 397.5C92 411 115 402 138.2 391.8C161.3 381.7 184.7 370.3 207.8 351.2C231 332 254 305 277 297.2C300 289.3 323 300.7 346 323.2C369 345.7 392 379.3 415.2 395C438.3 410.7 461.7 408.3 484.8 405C508 401.7 531 397.3 554 404.2C577 411 600 429 623 427.8C646 426.7 669 406.3 692.2 404C715.3 401.7 738.7 417.3 761.8 414C785 410.7 808 388.3 831 372.7C854 357 877 348 888.5 343.5L900 339L900 276L888.5 265.8C877 255.7 854 235.3 831 244.3C808 253.3 785 291.7 761.8 310.8C738.7 330 715.3 330 692.2 321C669 312 646 294 623 282.7C600 271.3 577 266.7 554 271.2C531 275.7 508 289.3 484.8 302.8C461.7 316.3 438.3 329.7 415.2 324C392 318.3 369 293.7 346 271.2C323 248.7 300 228.3 277 226.2C254 224 231 240 207.8 253.5C184.7 267 161.3 278 138.2 282.5C115 287 92 285 69 268.2C46 251.3 23 219.7 11.5 203.8L0 188Z" fill="#989659"></path><path d="M0 426L11.5 437.3C23 448.7 46 471.3 69 475.8C92 480.3 115 466.7 138.2 453.2C161.3 439.7 184.7 426.3 207.8 417.3C231 408.3 254 403.7 277 398C300 392.3 323 385.7 346 399.2C369 412.7 392 446.3 415.2 459.8C438.3 473.3 461.7 466.7 484.8 460C508 453.3 531 446.7 554 450C577 453.3 600 466.7 623 475.7C646 484.7 669 489.3 692.2 487.2C715.3 485 738.7 476 761.8 461.3C785 446.7 808 426.3 831 420.7C854 415 877 424 888.5 428.5L900 433L900 337L888.5 341.5C877 346 854 355 831 370.7C808 386.3 785 408.7 761.8 412C738.7 415.3 715.3 399.7 692.2 402C669 404.3 646 424.7 623 425.8C600 427 577 409 554 402.2C531 395.3 508 399.7 484.8 403C461.7 406.3 438.3 408.7 415.2 393C392 377.3 369 343.7 346 321.2C323 298.7 300 287.3 277 295.2C254 303 231 330 207.8 349.2C184.7 368.3 161.3 379.7 138.2 389.8C115 400 92 409 69 395.5C46 382 23 346 11.5 328L0 310Z" fill="#818e48"></path><path d="M0 595L11.5 592.8C23 590.7 46 586.3 69 594.2C92 602 115 622 138.2 624.2C161.3 626.3 184.7 610.7 207.8 602.8C231 595 254 595 277 587.2C300 579.3 323 563.7 346 568.2C369 572.7 392 597.3 415.2 605.2C438.3 613 461.7 604 484.8 593.8C508 583.7 531 572.3 554 578C577 583.7 600 606.3 623 606.3C646 606.3 669 583.7 692.2 582.5C715.3 581.3 738.7 601.7 761.8 605.2C785 608.7 808 595.3 831 589.7C854 584 877 586 888.5 587L900 588L900 431L888.5 426.5C877 422 854 413 831 418.7C808 424.3 785 444.7 761.8 459.3C738.7 474 715.3 483 692.2 485.2C669 487.3 646 482.7 623 473.7C600 464.7 577 451.3 554 448C531 444.7 508 451.3 484.8 458C461.7 464.7 438.3 471.3 415.2 457.8C392 444.3 369 410.7 346 397.2C323 383.7 300 390.3 277 396C254 401.7 231 406.3 207.8 415.3C184.7 424.3 161.3 437.7 138.2 451.2C115 464.7 92 478.3 69 473.8C46 469.3 23 446.7 11.5 435.3L0 424Z" fill="#68853a"></path><path d="M0 642L11.5 641C23 640 46 638 69 640.3C92 642.7 115 649.3 138.2 650.3C161.3 651.3 184.7 646.7 207.8 639.8C231 633 254 624 277 618.5C300 613 323 611 346 614.5C369 618 392 627 415.2 629.2C438.3 631.3 461.7 626.7 484.8 621C508 615.3 531 608.7 554 612C577 615.3 600 628.7 623 630.8C646 633 669 624 692.2 625.2C715.3 626.3 738.7 637.7 761.8 637.7C785 637.7 808 626.3 831 623C854 619.7 877 624.3 888.5 626.7L900 629L900 586L888.5 585C877 584 854 582 831 587.7C808 593.3 785 606.7 761.8 603.2C738.7 599.7 715.3 579.3 692.2 580.5C669 581.7 646 604.3 623 604.3C600 604.3 577 581.7 554 576C531 570.3 508 581.7 484.8 591.8C461.7 602 438.3 611 415.2 603.2C392 595.3 369 570.7 346 566.2C323 561.7 300 577.3 277 585.2C254 593 231 593 207.8 600.8C184.7 608.7 161.3 624.3 138.2 622.2C115 620 92 600 69 592.2C46 584.3 23 588.7 11.5 590.8L0 593Z" fill="#4a7d2f"></path><path d="M0 676L11.5 676C23 676 46 676 69 676C92 676 115 676 138.2 676C161.3 676 184.7 676 207.8 676C231 676 254 676 277 676C300 676 323 676 346 676C369 676 392 676 415.2 676C438.3 676 461.7 676 484.8 676C508 676 531 676 554 676C577 676 600 676 623 676C646 676 669 676 692.2 676C715.3 676 738.7 676 761.8 676C785 676 808 676 831 676C854 676 877 676 888.5 676L900 676L900 627L888.5 624.7C877 622.3 854 617.7 831 621C808 624.3 785 635.7 761.8 635.7C738.7 635.7 715.3 624.3 692.2 623.2C669 622 646 631 623 628.8C600 626.7 577 613.3 554 610C531 606.7 508 613.3 484.8 619C461.7 624.7 438.3 629.3 415.2 627.2C392 625 369 616 346 612.5C323 609 300 611 277 616.5C254 622 231 631 207.8 637.8C184.7 644.7 161.3 649.3 138.2 648.3C115 647.3 92 640.7 69 638.3C46 636 23 638 11.5 639L0 640Z" fill="#227428"></path></svg>