<svg id="visual" viewBox="0 0 960 540" width="960" height="540" xmlns="http://www.w3.org/2000/svg" xmlns:xlink="http://www.w3.org/1999/xlink" version="1.1"><rect x="0" y="0" width="960" height="540" fill="#B39E7B"></rect><path d="M0 197L22.8 197.5C45.7 198 91.3 199 137 196.5C182.7 194 228.3 188 274 182.3C319.7 176.7 365.3 171.3 411.2 175.8C457 180.3 503 194.7 548.8 197.3C594.7 200 640.3 191 686 192.2C731.7 193.3 777.3 204.7 823 205.5C868.7 206.3 914.3 196.7 937.2 191.8L960 187L960 0L937.2 0C914.3 0 868.7 0 823 0C777.3 0 731.7 0 686 0C640.3 0 594.7 0 548.8 0C503 0 457 0 411.2 0C365.3 0 319.7 0 274 0C228.3 0 182.7 0 137 0C91.3 0 45.7 0 22.8 0L0 0Z" fill="#7b98b3"></path><path d="M0 113L22.8 122.2C45.7 131.3 91.3 149.7 137 149.3C182.7 149 228.3 130 274 123C319.7 116 365.3 121 411.2 122C457 123 503 120 548.8 129.3C594.7 138.7 640.3 160.3 686 166.5C731.7 172.7 777.3 163.3 823 155.3C868.7 147.3 914.3 140.7 937.2 137.3L960 134L960 0L937.2 0C914.3 0 868.7 0 823 0C777.3 0 731.7 0 686 0C640.3 0 594.7 0 548.8 0C503 0 457 0 411.2 0C365.3 0 319.7 0 274 0C228.3 0 182.7 0 137 0C91.3 0 45.7 0 22.8 0L0 0Z" fill="#6587a7"></path><path d="M0 95L22.8 96.2C45.7 97.3 91.3 99.7 137 103.3C182.7 107 228.3 112 274 108.2C319.7 104.3 365.3 91.7 411.2 89C457 86.3 503 93.7 548.8 97.3C594.7 101 640.3 101 686 107.7C731.7 114.3 777.3 127.7 823 129.5C868.7 131.3 914.3 121.7 937.2 116.8L960 112L960 0L937.2 0C914.3 0 868.7 0 823 0C777.3 0 731.7 0 686 0C640.3 0 594.7 0 548.8 0C503 0 457 0 411.2 0C365.3 0 319.7 0 274 0C228.3 0 182.7 0 137 0C91.3 0 45.7 0 22.8 0L0 0Z" fill="#50769c"></path><path d="M0 84L22.8 85.7C45.7 87.3 91.3 90.7 137 87.2C182.7 83.7 228.3 73.3 274 70.2C319.7 67 365.3 71 411.2 71.8C457 72.7 503 70.3 548.8 67.7C594.7 65 640.3 62 686 59.8C731.7 57.7 777.3 56.3 823 63.2C868.7 70 914.3 85 937.2 92.5L960 100L960 0L937.2 0C914.3 0 868.7 0 823 0C777.3 0 731.7 0 686 0C640.3 0 594.7 0 548.8 0C503 0 457 0 411.2 0C365.3 0 319.7 0 274 0C228.3 0 182.7 0 137 0C91.3 0 45.7 0 22.8 0L0 0Z" fill="#3a6591"></path><path d="M0 29L22.8 31.3C45.7 33.7 91.3 38.3 137 37.5C182.7 36.7 228.3 30.3 274 27.7C319.7 25 365.3 26 411.2 26.7C457 27.3 503 27.7 548.8 30.8C594.7 34 640.3 40 686 44.5C731.7 49 777.3 52 823 48.3C868.7 44.7 914.3 34.3 937.2 29.2L960 24L960 0L937.2 0C914.3 0 868.7 0 823 0C777.3 0 731.7 0 686 0C640.3 0 594.7 0 548.8 0C503 0 457 0 411.2 0C365.3 0 319.7 0 274 0C228.3 0 182.7 0 137 0C91.3 0 45.7 0 22.8 0L0 0Z" fill="#225586"></path></svg>